# xmcd CD database file
#
# Track frame offsets:
#	150
#	16767
#	33280
#	50087
#	66355
#	82275
#	100162
#	118017
#	137250
#	158562
#	176680
#	198562
#	220125
#	239342
#	259137
#
# Disc length: 3749 seconds
#
# Revision: 12
# Processed by: cddbd v1.5.2PL0 Copyright (c) Steve Scherf et al.
# Submitted via: CDex 1.77
#
DISCID=d00ea30f
DTITLE=???? - Bible 2
DYEAR=0
DGENRE=J-Pop
TTITLE0=?????
TTITLE1=????????
TTITLE2=???????
TTITLE3=?????????
TTITLE4=?????
TTITLE5=??????
TTITLE6=??????
TTITLE7=Rock?n Rouge
TTITLE8=????????
TTITLE9=???????
TTITLE10=?????????
TTITLE11=??????????
TTITLE12=????????????
TTITLE13=??????
TTITLE14=?????????
EXTD=YEAR: 0
EXTT0=
EXTT1=
EXTT2=
EXTT3=
EXTT4=
EXTT5=
EXTT6=
EXTT7=
EXTT8=
EXTT9=
EXTT10=
EXTT11=
EXTT12=
EXTT13=
EXTT14=
PLAYORDER=
